<svg width="106" height="86" viewBox="0 0 106 86" fill="none" xmlns="http://www.w3.org/2000/svg">
<g id="bb-logo-colors2">
<path id="Fill-1" fill-rule="evenodd" clip-rule="evenodd" d="M2.20738 69.3945H0V81.8445C0.979107 82.2365 2.65251 82.5043 3.97014 82.5043C6.96087 82.5043 8.31373 81.3822 8.31373 77.659C8.31373 73.99 7.06778 72.921 4.55742 72.921C3.54247 72.921 2.70622 73.2239 2.20738 73.5264V69.3945ZM3.97014 80.6871C3.40072 80.6871 2.72399 80.5976 2.20738 80.402V75.7176C2.20738 75.1831 3.02617 74.8622 4.00578 74.8622C5.5545 74.8622 6.05293 75.4504 6.05293 77.6947C6.05293 80.2773 5.53703 80.6871 3.97014 80.6871Z" fill="#313647"/>
<path id="Fill-3" d="M15.2884 73.0649H17.4934V81.7112C16.3734 82.1438 14.6481 82.504 13.2075 82.504C10.6647 82.504 9.52612 81.4776 9.52612 78.1805V73.0649H11.7313V77.947C11.7313 79.9821 12.105 80.4864 13.6521 80.4864C14.2391 80.4864 14.7548 80.4145 15.2884 80.2523V73.0649" fill="#313647"/>
<path id="Fill-5" fill-rule="evenodd" clip-rule="evenodd" d="M23.0675 82.5043C24.3668 82.5043 26.0402 82.2365 27.0196 81.8445V69.3945H24.812V73.4376C24.3311 73.1703 23.6725 72.9209 22.6401 72.9209C20.2192 72.9209 18.7059 74.043 18.7059 77.7125C18.7059 81.4352 20.0767 82.5043 23.0675 82.5043ZM23.0319 74.7912C24.0287 74.7912 24.812 75.1295 24.812 75.6639V80.3489C24.349 80.5093 23.6725 80.6161 23.0675 80.6161C21.5007 80.6161 20.9845 80.1526 20.9845 77.6768C20.9845 75.4151 21.4827 74.7912 23.0319 74.7912Z" fill="#313647"/>
<path id="Fill-7" fill-rule="evenodd" clip-rule="evenodd" d="M28.5784 77.7702C28.5784 81.4981 29.896 82.5428 32.3883 82.5428C33.421 82.5428 34.186 82.2544 34.6844 81.9481C34.6844 83.6411 33.7053 84.1091 32.0318 84.1091C31.1773 84.1091 30.1447 83.9293 29.3087 83.6592L28.8634 85.4602C29.6465 85.7658 31.0176 85.9999 32.0502 85.9999C34.916 85.9999 36.8922 85.2079 36.8922 81.6241V73.5748C35.9131 73.1604 34.2396 72.8901 32.9398 72.8901C29.9491 72.8901 28.5784 74.0246 28.5784 77.7702ZM32.9398 74.7273C33.4919 74.7273 34.1683 74.8353 34.6844 75.0331V79.7514C34.6844 80.3094 33.8657 80.6158 32.8864 80.6158C31.3377 80.6158 30.8566 80.0392 30.8566 77.7526C30.8566 75.1416 31.3736 74.7273 32.9398 74.7273Z" fill="#313647"/>
<path id="Fill-9" fill-rule="evenodd" clip-rule="evenodd" d="M42.4777 82.504C43.3982 82.504 44.7266 82.3072 45.6297 82.0037L45.2752 80.2521C44.5671 80.4668 43.3804 80.6272 42.7434 80.6272C41.1677 80.6272 40.4241 80.234 40.406 78.2866H46.2315C46.391 73.8735 45.1518 72.8901 42.3005 72.8901C39.6798 72.8901 38.1046 74.0158 38.1046 77.6612C38.1046 81.3956 39.8746 82.504 42.4777 82.504ZM44.2129 76.5892H40.4241C40.5653 75.0878 41.0439 74.6412 42.4247 74.6412C43.6819 74.6412 44.1423 74.9806 44.2129 76.5892Z" fill="#313647"/>
<path id="Fill-11" d="M50.6037 75.0294V78.9741C50.6037 80.1081 50.902 80.5761 51.9545 80.5761C52.5332 80.5761 53.0418 80.4682 53.4807 80.3247L53.866 82.0894C53.2346 82.3235 52.27 82.5039 51.4103 82.5039C49.4108 82.5039 48.4289 81.891 48.4289 79.1719V75.0294H46.9379V73.0848H48.4289V71.5358L50.6037 70.6177V73.0848H53.5676V75.0294H50.6037" fill="#313647"/>
<path id="Fill-13" fill-rule="evenodd" clip-rule="evenodd" d="M57.806 69.3945H55.598V81.8445C56.5778 82.2365 58.2509 82.5043 59.5687 82.5043C62.5595 82.5043 63.9117 81.3822 63.9117 77.659C63.9117 73.99 62.6661 72.921 60.1558 72.921C59.141 72.921 58.3046 73.2239 57.806 73.5264V69.3945ZM59.5687 80.6871C58.9987 80.6871 58.3225 80.5976 57.806 80.402V75.7176C57.806 75.1831 58.6247 74.8622 59.6043 74.8622C61.1529 74.8622 61.6513 75.4504 61.6513 77.6947C61.6513 80.2773 61.135 80.6871 59.5687 80.6871Z" fill="#616371"/>
<path id="Fill-15" fill-rule="evenodd" clip-rule="evenodd" d="M68.8006 82.504C70.0718 82.504 71.7729 82.2353 72.9183 81.7888V76.4282C72.9183 73.7124 71.6829 72.8901 68.9799 72.8901C67.6727 72.8901 66.2941 73.1223 65.3455 73.3725L65.7568 75.1953C66.5094 74.9272 67.5115 74.7484 68.514 74.7484C70.4117 74.7484 70.7878 75.1415 70.7878 76.7317C70.0178 76.5713 69.3018 76.4815 68.532 76.4815C66.4016 76.4815 64.951 76.8926 64.951 79.466C64.951 81.8421 65.9181 82.504 68.8006 82.504ZM68.9799 78.0722C69.6419 78.0722 70.2865 78.1256 70.7878 78.2326V80.5027C70.269 80.681 69.6065 80.806 68.9619 80.806C67.6193 80.806 67.2788 80.6098 67.2788 79.3764C67.2788 78.2153 67.7266 78.0722 68.9799 78.0722Z" fill="#616371"/>
<path id="Fill-17" d="M82.6177 82.3295C80.7075 79.321 79.3633 77.6825 78.9033 77.3963C79.3813 77.0202 80.6187 75.4104 82.3518 73.3047H79.7522C78.458 74.809 77.6209 76.1129 76.7298 76.8236V69.3945H74.6503V82.3295H76.7298V77.8494C77.6209 78.5515 78.5412 80.2239 80.0352 82.3295H82.6177" fill="#616371"/>
<path id="Fill-19" fill-rule="evenodd" clip-rule="evenodd" d="M87.3373 82.504C88.2578 82.504 89.5861 82.3072 90.4887 82.0037L90.1341 80.2521C89.426 80.4668 88.24 80.6272 87.6025 80.6272C86.0263 80.6272 85.2826 80.234 85.2655 78.2866H91.0911C91.2497 73.8735 90.0103 72.8901 87.1601 72.8901C84.5397 72.8901 82.9641 74.0158 82.9641 77.6612C82.9641 81.3956 84.7347 82.504 87.3373 82.504ZM89.0727 76.5892H85.2826C85.4244 75.0878 85.9029 74.6412 87.2835 74.6412C88.5413 74.6412 89.0015 74.9806 89.0727 76.5892Z" fill="#616371"/>
<path id="Fill-21" d="M92.4902 73.1604H94.6662V73.8451C94.9818 73.3407 95.6664 72.8901 96.9468 72.8901C97.2454 72.8901 97.5433 72.9082 97.8595 72.9444V75.07C97.5433 74.9976 97.1049 74.9438 96.7189 74.9438C95.631 74.9438 94.6662 75.3041 94.6662 75.9707V82.3292H92.4902V73.1604" fill="#616371"/>
<path id="Fill-23" d="M105.262 75.1242C104.559 74.8914 103.557 74.6951 102.66 74.6951C101.588 74.6951 101.043 74.8023 101.043 75.749C101.043 76.375 101.43 76.5892 102.889 76.7317C105.051 76.9646 106 77.6432 106 79.4661C106 81.8247 104.453 82.504 102.168 82.504C101.219 82.504 99.8124 82.3251 98.9694 82.021L99.4262 80.2699C100.077 80.5028 101.184 80.6989 102.08 80.6989C103.275 80.6989 103.838 80.5379 103.838 79.5912C103.838 78.9478 103.487 78.6439 101.922 78.5009C99.9531 78.3405 98.8987 77.7863 98.8987 75.91C98.8987 73.5515 100.463 72.8901 102.731 72.8901C103.662 72.8901 104.84 73.0864 105.737 73.3905L105.262 75.1242" fill="#616371"/>
<path id="Combined-Shape" fill-rule="evenodd" clip-rule="evenodd" d="M83.4609 30.9275C83.4609 13.8468 69.7404 0 52.8154 0C35.8904 0 22.1699 13.8468 22.1699 30.9275C22.1699 48.0086 35.8904 61.8554 52.8154 61.8554C69.7404 61.8554 83.4609 48.0086 83.4609 30.9275ZM52.7033 19.4602L52.891 19.4586C59.0978 19.4586 64.1441 24.5112 64.2444 30.7801L64.2459 30.9704C64.2459 37.2618 59.2617 42.379 53.0787 42.4807L52.891 42.4823C46.6207 42.4823 41.5358 37.3254 41.5358 30.9704C41.5358 24.6774 46.5195 19.5618 52.7033 19.4602Z" fill="url(#paint0_linear_0_202)"/>
<path id="Combined-Shape_2" fill-rule="evenodd" clip-rule="evenodd" d="M56.4041 3.34198C56.2249 3.10872 55.9531 2.98389 55.6777 2.98389L55.6183 2.9858C55.4598 2.996 55.3015 3.04723 55.1605 3.14305L55.0736 3.20062C53.7598 4.03989 50.7146 4.65205 49.6287 4.82112L49.5772 4.83049C49.1022 4.93093 48.7829 5.39197 48.8561 5.88416C48.9262 6.34649 49.3194 6.67632 49.766 6.67632L49.9056 6.66537L49.9267 6.66211C50.4688 6.57798 54.3875 5.93178 56.1947 4.68694L56.2385 4.6549C56.6224 4.35686 56.715 3.80286 56.4386 3.39007L56.4041 3.34198ZM45.2323 6.21116L45.251 6.26059C45.4146 6.72974 45.1851 7.24259 44.7376 7.43228L44.6889 7.45135C43.7367 7.79197 41.054 8.88107 39.8439 9.89654L39.7637 9.96565C39.6054 10.1063 39.4128 10.1824 39.217 10.1951L39.1582 10.197C38.9015 10.197 38.6468 10.0889 38.4643 9.87639C38.142 9.50285 38.1668 8.94163 38.5128 8.59672L38.5526 8.55931C40.203 7.0975 43.8231 5.78168 44.0689 5.6947L44.0769 5.69188C44.5402 5.52574 45.0462 5.75761 45.2323 6.21116ZM59.1632 14.9122C59.0064 14.8035 58.8251 14.7503 58.6449 14.7503L58.5867 14.7522C58.3349 14.7681 58.0901 14.8872 57.9217 15.1051L57.8894 15.1491C57.6122 15.5512 57.6895 16.1071 58.0737 16.4144L58.0801 16.4195C58.2691 16.571 61.0314 18.754 63.1589 19.3368C63.2394 19.3598 63.32 19.3694 63.4006 19.3694L63.4532 19.3678C63.8375 19.3453 64.1818 19.0779 64.2875 18.6802L64.2997 18.6288C64.4002 18.1484 64.1135 17.6645 63.6385 17.5349L63.5426 17.5073C62.0589 17.0594 59.9253 15.5192 59.2145 14.9505L59.1632 14.9122ZM43.8311 15.2957C43.9386 15.2957 44.0478 15.3152 44.1537 15.356L44.2168 15.383C44.6624 15.5915 44.8644 16.1157 44.6867 16.5736L44.6662 16.6224C43.7759 18.5782 41.2769 21.3497 41.0251 21.629L41.0138 21.6416L41.0081 21.6479C40.8394 21.8295 40.6162 21.9301 40.3893 21.9445L40.3325 21.9463C40.1085 21.9463 39.8831 21.8635 39.7067 21.6962C39.3475 21.3591 39.3137 20.7989 39.6205 20.4203L39.6574 20.3774L39.6725 20.3605L39.6725 20.3605C39.8811 20.1285 42.1653 17.588 42.9619 15.9095L42.9951 15.8381C43.142 15.515 43.4487 15.3173 43.7763 15.2974L43.8311 15.2957ZM76.6358 25.5693C76.5545 25.5465 76.4735 25.5357 76.3922 25.5357L76.3391 25.5373C75.986 25.5585 75.6639 25.7897 75.5336 26.1496L75.517 26.1992C75.3765 26.6643 75.619 27.1684 76.0735 27.3451L76.0772 27.3466C76.1979 27.3954 78.0425 28.1867 78.6016 31.4392C78.6794 31.8937 79.0684 32.2126 79.5073 32.2126L79.6673 32.2002L79.7185 32.1895C80.1901 32.0762 80.5 31.6092 80.415 31.1187L80.3915 30.9869C79.5987 26.6705 76.8155 25.6321 76.6968 25.5887L76.6358 25.5693ZM68.9285 27.4574L68.8788 27.441C68.4133 27.3017 67.9159 27.5542 67.752 28.0247L67.7359 28.075C67.599 28.5456 67.8485 29.0493 68.3108 29.2155L68.405 29.2509C69.8282 29.8077 71.6897 31.5185 72.3003 32.1435C72.4803 32.3282 72.7173 32.4206 72.9554 32.4206L73.0139 32.4187C73.2282 32.4051 73.438 32.3164 73.6017 32.1517L73.6405 32.1105C73.9639 31.7456 73.954 31.1848 73.6111 30.8312L73.5563 30.7758C73.1678 30.3858 70.9061 28.1687 68.9285 27.4574Z" fill="white" fill-opacity="0.79581"/>
<path id="Combined-Shape_3" fill-rule="evenodd" clip-rule="evenodd" d="M66.3273 6.84352L66.2833 6.81167C65.8816 6.53847 65.3336 6.62852 65.037 7.02318L65.0055 7.06786C64.7354 7.47563 64.8228 8.03109 65.2145 8.33128L65.2794 8.38224C66.7097 9.52685 68.3482 12.2147 68.4601 12.3983C68.4636 12.4039 68.4655 12.4072 68.4661 12.408C68.6386 12.6968 68.9421 12.8577 69.2544 12.8577L69.3152 12.8556C69.4572 12.846 69.5992 12.8026 69.7298 12.7218L69.7754 12.692C70.175 12.4138 70.2947 11.8654 70.0399 11.4407L70.0357 11.4336C69.9108 11.2246 68.0725 8.18742 66.3273 6.84352ZM33.1351 10.0203L33.0911 9.98844C32.6892 9.71524 32.1422 9.80529 31.8453 10.1999L31.8139 10.2446C31.5446 10.6523 31.6314 11.2062 32.022 11.5075L32.0869 11.5584C33.5614 12.7366 35.2566 15.5552 35.2733 15.5848C35.4469 15.8736 35.7512 16.0331 36.0622 16.0331L36.1232 16.0311C36.2657 16.0217 36.409 15.9794 36.5382 15.8986L36.5836 15.8688C36.9828 15.5906 37.1025 15.0421 36.8491 14.6174L36.8449 14.6103C36.7191 14.3997 34.8802 11.3625 33.1351 10.0203ZM72.9576 11.6748C73.4235 11.6748 73.8088 12.0222 73.8683 12.4857L73.8736 12.5377C73.8749 12.5589 74.0396 14.6156 74.881 16.2429L74.9244 16.3253C75.1588 16.7627 75.0128 17.3054 74.6 17.5646L74.5547 17.5913C74.4349 17.6567 74.3073 17.6937 74.1798 17.7029L74.1161 17.7052C73.7891 17.7052 73.4732 17.527 73.3054 17.2162C72.2519 15.2484 72.0505 12.8562 72.0376 12.6847L72.0372 12.6783C72.0003 12.1818 72.3542 11.7481 72.8345 11.6836L72.8864 11.6782L72.9222 11.6759L72.9576 11.6748ZM68.9357 17.836L68.885 17.8237C68.4117 17.7228 67.9359 18.0146 67.8073 18.4943L67.7843 18.5771C67.27 20.3494 65.3576 22.5402 65.3385 22.5618L65.3037 22.6037C65.0027 22.9879 65.0469 23.5489 65.4125 23.8805C65.5877 24.0383 65.8068 24.1166 66.0252 24.1166L66.0838 24.1147C66.3175 24.0996 66.5448 23.9943 66.7125 23.8039L66.7177 23.798C66.8667 23.628 69.0025 21.1645 69.5847 18.9819L69.597 18.9305C69.6971 18.4501 69.4105 17.9678 68.9357 17.836ZM37.1724 23.7462L37.1844 23.7977C37.4064 24.8887 38.1661 27.9397 39.0601 29.2259L39.1213 29.3108C39.4177 29.7085 39.3531 30.2663 38.9854 30.5843L38.9433 30.6186C38.7951 30.7324 38.6257 30.7934 38.4534 30.8056L38.3886 30.8078C38.109 30.8078 37.8354 30.681 37.6532 30.439C36.3349 28.6736 35.4962 24.7387 35.384 24.1956L35.3796 24.1744C35.2818 23.6871 35.5773 23.2098 36.0454 23.0832L36.0962 23.071C36.5775 22.9715 37.0476 23.2711 37.1724 23.7462ZM26.3204 26.634L26.3697 26.6511C27.1847 26.9573 29.5918 27.7081 31.1111 27.6012L31.2068 27.5932C31.6987 27.5452 32.1315 27.8945 32.2032 28.3815L32.2095 28.4342C32.2576 28.9291 31.9123 29.3714 31.4336 29.446L31.3818 29.4526C31.2433 29.4658 31.1009 29.4745 30.9555 29.478L30.8092 29.4798C28.641 29.4798 25.9093 28.4678 25.7342 28.403L25.7298 28.4013C25.2684 28.2279 25.0261 27.7223 25.1697 27.2529L25.1866 27.2027C25.3579 26.7365 25.8582 26.4889 26.3204 26.634ZM49.3039 10.0769L49.3506 10.1045C51.2091 11.2806 53.3143 14.1345 53.4582 14.3312L53.4631 14.3379C53.7541 14.7368 53.6842 15.2948 53.3124 15.6087L53.2698 15.6426C53.1234 15.7524 52.9561 15.8114 52.787 15.8231L52.7235 15.8253C52.4419 15.8253 52.1625 15.694 51.9822 15.4472L51.9786 15.4423C51.8821 15.3118 49.9876 12.7497 48.4447 11.7351L48.3754 11.6905C47.9597 11.4269 47.8223 10.8829 48.0546 10.4507L48.0819 10.4032C48.3414 9.98119 48.8785 9.84266 49.3039 10.0769Z" fill="white"/>
<path id="Combined-Shape_4" fill-rule="evenodd" clip-rule="evenodd" d="M57.6491 7.40513C57.4712 7.22762 57.2387 7.13721 57.0046 7.13721L56.9451 7.13914C56.747 7.15207 56.5519 7.22974 56.3921 7.37469L56.3528 7.41227C56.0113 7.75869 55.9915 8.3198 56.3159 8.69036L56.3214 8.69656C56.4828 8.87961 58.8302 11.5161 60.9301 12.3143C61.037 12.3547 61.145 12.3752 61.2532 12.3752L61.3063 12.3737C61.6586 12.3529 61.9831 12.126 62.1155 11.7686L62.1324 11.7185C62.2767 11.2493 62.0373 10.7406 61.5764 10.5655L61.4837 10.5287C60.0846 9.94946 58.2818 8.12081 57.6924 7.45132L57.6491 7.40513ZM32.0536 16.9598C31.9037 16.6133 31.5672 16.402 31.2104 16.402L31.1468 16.4041C31.0619 16.4098 30.9765 16.4272 30.8914 16.4595L30.843 16.4792C30.3991 16.6747 30.1768 17.1908 30.3473 17.657L30.3792 17.7494C30.8639 19.2294 30.6917 22.2014 30.5808 23.2417L30.5766 23.2945C30.5517 23.7855 30.9105 24.2155 31.3973 24.2699L31.497 24.2761L31.5466 24.2748C31.9902 24.2505 32.3622 23.9028 32.4119 23.4418L32.414 23.4221C32.469 22.9013 32.8314 19.0984 32.0746 17.0128L32.0536 16.9598ZM68.6524 33.1597C69.1157 33.1597 69.5058 33.5141 69.5612 33.9807L69.5659 34.0329C69.6244 34.9483 69.9179 37.5845 70.5807 39.0027L70.6264 39.0975C70.8489 39.5422 70.6854 40.0807 70.2659 40.327L70.2199 40.3522C70.1065 40.4112 69.9857 40.4427 69.866 40.4505L69.8063 40.4525C69.469 40.4525 69.1453 40.2647 68.9833 39.9399C67.9886 37.9446 67.744 34.401 67.7287 34.1599L67.7282 34.152C67.6963 33.6554 68.0543 33.2246 68.5359 33.1659L68.5879 33.1611L68.6206 33.1598L68.6524 33.1597ZM34.4135 33.3986C34.6753 33.3986 34.9335 33.5101 35.1138 33.723L35.1512 33.7702C36.4864 35.575 37.1644 38.9674 37.2103 39.202L37.2118 39.21C37.3062 39.6971 37.0054 40.1713 36.5357 40.2924L36.4847 40.304L36.3078 40.3211C35.8758 40.3211 35.4912 40.0117 35.4043 39.5663C35.2381 38.7049 34.6211 36.2408 33.741 34.9772L33.6792 34.8911C33.3836 34.4945 33.449 33.9354 33.8188 33.6186L33.8611 33.5844C34.0088 33.4733 34.179 33.4129 34.3496 33.4008L34.4135 33.3986ZM77.6634 19.4569C78.083 19.4569 78.4581 19.7515 78.5574 20.1757L78.568 20.2272C78.6539 20.7175 78.3445 21.186 77.8732 21.2979L77.8221 21.3085C76.8068 21.4918 73.9504 22.1518 72.6814 23.0357L72.5974 23.0963C72.4521 23.2043 72.2842 23.2636 72.1146 23.2754L72.051 23.2776C71.7689 23.2776 71.4909 23.1463 71.3092 22.8995C71.0185 22.5 71.0887 21.9407 71.4615 21.6269L71.5042 21.5931C73.2667 20.2746 76.9663 19.568 77.4803 19.4747L77.5009 19.4709C77.5373 19.4648 77.5734 19.4606 77.6094 19.4585L77.6634 19.4569Z" fill="white" fill-opacity="0.621148"/>
<path id="Fill-1_2" d="M34.8114 46.7159C33.3781 46.7159 32.1815 45.6144 31.3189 43.4117L29.3766 37.5435L28.2101 33.7553C27.3742 32.0239 26.4082 31.1582 25.2567 31.1582C24.1052 31.1582 23.1525 32.26 22.3712 34.4633L22.3089 34.7482C23.0532 40.9372 25.7607 46.562 29.3766 51.0674C30.4892 52.1672 31.3704 53.1999 32.444 54.158C34.7176 52.4718 36.5918 49.1726 38.0109 44.2594C37.1036 45.8956 36.0466 46.7159 34.8114 46.7159" fill="url(#paint1_linear_0_202)"/>
<path id="Fill-4" d="M77.608 34.2456C76.2312 34.2456 75.0129 35.7698 74.0343 38.8183L73.6024 40.0394L72.151 44.73C71.6078 46.6616 70.8059 49.1366 69.6841 52.1696C68.6658 54.9225 67.3093 57.1963 65.7021 59.0009C68.6316 57.6162 71.3772 55.7784 73.6024 53.5751C77.7746 49.7497 80.738 44.83 82.2659 39.2776C80.516 35.9237 78.9812 34.2456 77.608 34.2456" fill="url(#paint2_linear_0_202)"/>
<path id="Fill-6" d="M71.8464 45.8673C70.8729 48.5009 69.686 49.8177 68.2992 49.8177C66.9126 49.8177 65.8443 49.0696 65.0941 47.5731C64.3659 44.8901 62.9829 43.5483 60.8398 43.5483C59.1898 43.5483 58.0258 44.8129 57.1914 46.2987C56.3569 47.4533 55.9124 48.7398 55.436 49.6731C55.3842 49.8474 55.2744 50.0234 55.2093 50.2014C53.1318 55.8919 50.0724 59.54 46.0354 61.1546C48.2088 61.6481 50.5219 61.9106 52.8433 61.9106C54.3017 61.9106 55.8006 61.8019 57.1914 61.6032C60.251 61.1692 63.119 60.2785 65.8217 59.0007C67.4291 57.1961 68.7189 54.9223 69.7372 52.1692C70.859 49.1364 71.6745 46.6614 72.218 44.7298L71.8464 45.8673Z" fill="url(#paint3_linear_0_202)"/>
<path id="Fill-9_2" d="M55.0754 50.2339C53.9303 52.122 52.7905 52.956 51.5299 52.956C51.0954 52.956 50.6376 52.7785 50.1572 52.4305C49.7077 52.1048 49.2385 51.6305 48.7487 51.0003L45.9422 44.3461C45.068 41.809 43.7685 40.5405 42.0985 40.5405C42.0381 40.5405 41.8935 40.5445 41.8935 40.547C40.5027 40.6135 39.1796 41.5665 38.4358 43.4116C38.2987 43.7159 38.1707 43.9972 38.0253 44.2593C36.6061 49.1726 34.7392 52.4717 32.4656 54.1579C35.2187 56.6155 38.5557 58.5799 41.8935 59.9169C42.7279 60.2277 43.5651 60.5053 44.4104 60.7464L44.4271 60.7181L44.438 60.7464C44.9645 60.8969 45.4974 61.0322 46.0354 61.1546C50.0724 59.54 53.1317 55.8919 55.2095 50.2014C55.2743 50.0234 55.3313 49.8474 55.3833 49.6731C55.2785 49.8786 55.1761 50.068 55.0754 50.2339" fill="url(#paint4_linear_0_202)"/>
</g>
<defs>
<linearGradient id="paint0_linear_0_202" x1="22.1699" y1="61.4619" x2="82.6812" y2="61.4619" gradientUnits="userSpaceOnUse">
<stop stop-color="#3DDAAE"/>
<stop offset="1" stop-color="#12D476"/>
</linearGradient>
<linearGradient id="paint1_linear_0_202" x1="24.5611" y1="47.2324" x2="32.379" y2="51.3811" gradientUnits="userSpaceOnUse">
<stop stop-color="#515563"/>
<stop offset="1" stop-color="#383D4D"/>
</linearGradient>
<linearGradient id="paint2_linear_0_202" x1="75.8136" y1="57.4013" x2="87.5949" y2="46.7696" gradientUnits="userSpaceOnUse">
<stop stop-color="#515563"/>
<stop offset="1" stop-color="#383D4D"/>
</linearGradient>
<linearGradient id="paint3_linear_0_202" x1="57.0252" y1="57.9022" x2="65.5412" y2="52.4617" gradientUnits="userSpaceOnUse">
<stop stop-color="#515563"/>
<stop offset="1" stop-color="#383D4D"/>
</linearGradient>
<linearGradient id="paint4_linear_0_202" x1="40.1824" y1="59.6504" x2="50.2327" y2="57.8789" gradientUnits="userSpaceOnUse">
<stop stop-color="#515563"/>
<stop offset="1" stop-color="#383D4D"/>
</linearGradient>
</defs>
</svg>
