<svg id="swisscom_logo" xmlns="http://www.w3.org/2000/svg" xmlns:xlink="http://www.w3.org/1999/xlink" viewBox="0 0 451.47 175.72"><defs><style>.cls-1{fill:none;}.cls-2{fill:#015;}.cls-3{fill:#fff;}.cls-4{fill:url(#linear-gradient);}.cls-5{fill:url(#radial-gradient);}.cls-6{fill:url(#radial-gradient-2);}.cls-7{fill:url(#radial-gradient-3);}.cls-8{fill:url(#radial-gradient-4);}.cls-9{fill:url(#radial-gradient-5);}.cls-10{fill:url(#radial-gradient-6);}</style><linearGradient id="linear-gradient" x1="69.55" y1="48.21" x2="60.12" y2="84.19" gradientTransform="matrix(1, 0, 0, -1, 0, 177)" gradientUnits="userSpaceOnUse"><stop offset="0" stop-color="#350706"/><stop offset="0.36" stop-color="#3f0808"/><stop offset="0.98" stop-color="#5b0c0e"/><stop offset="1" stop-color="#5c0c0e"/></linearGradient><radialGradient id="radial-gradient" cx="70.69" cy="120.71" r="20.17" gradientTransform="matrix(1, 0, 0, -1, 0, 177)" gradientUnits="userSpaceOnUse"><stop offset="0" stop-color="#003789"/><stop offset="1" stop-color="#5fc7ff" stop-opacity="0.98"/></radialGradient><radialGradient id="radial-gradient-2" cx="84.22" cy="123.44" r="24.08" gradientTransform="matrix(1, 0, 0, -1, 0, 177)" gradientUnits="userSpaceOnUse"><stop offset="0" stop-color="#ec0a1c"/><stop offset="1" stop-color="#bb0e15"/></radialGradient><radialGradient id="radial-gradient-3" cx="106.44" cy="89.14" r="41.36" gradientTransform="matrix(1, 0, 0, -1, 0, 177)" gradientUnits="userSpaceOnUse"><stop offset="0" stop-color="#5bc0ff" stop-opacity="0.98"/><stop offset="1" stop-color="#003789"/></radialGradient><radialGradient id="radial-gradient-4" cx="53.82" cy="72.57" r="27.02" gradientTransform="matrix(1, 0, 0, -1, 0, 177)" gradientUnits="userSpaceOnUse"><stop offset="0" stop-color="#42b4f3" stop-opacity="0.98"/><stop offset="1" stop-color="#003a80"/></radialGradient><radialGradient id="radial-gradient-5" cx="88.49" cy="104.89" r="47.74" gradientTransform="matrix(1, 0, 0, -1, 0, 177)" gradientUnits="userSpaceOnUse"><stop offset="0" stop-color="#5fc7ff"/><stop offset="1" stop-color="#003785" stop-opacity="0.98"/></radialGradient><radialGradient id="radial-gradient-6" cx="47.21" cy="114.1" r="55.18" gradientTransform="matrix(1, 0, 0, -1, 0, 177)" gradientUnits="userSpaceOnUse"><stop offset="0" stop-color="#ec0a1c"/><stop offset="1" stop-color="#9e0d18"/></radialGradient></defs><title>Swisscom_Horizontal_RGB_Colour_Navy</title><rect class="cls-1" x="137.88" y="-137.88" width="175.72" height="451.47" transform="translate(313.59 -137.88) rotate(90)"/><path class="cls-2" d="M284.56,77.55A24.28,24.28,0,0,0,276.94,76c-2.9,0-5.17.76-5.17,3.4,0,6.24,16.06,2.4,16.06,15.24,0,8.69-7.05,12-15,12a37.13,37.13,0,0,1-10.65-1.58l.63-7.62a36,36,0,0,0,9.64,1.77c3.08,0,5.6-1,5.6-3.65,0-6.68-16.05-2.4-16.05-15.18,0-8,6.73-11.27,14.16-11.27a30.63,30.63,0,0,1,10.08,1.58Zm-29.35,0A24.51,24.51,0,0,0,247.6,76c-2.9,0-5.23.76-5.23,3.4,0,6.24,16.12,2.4,16.12,15.24,0,8.69-7.11,12-15,12a38.6,38.6,0,0,1-10.77-1.58l.69-7.62a36.66,36.66,0,0,0,9.7,1.77c3,0,5.54-1,5.54-3.65,0-6.68-16.12-2.4-16.12-15.18,0-8,6.8-11.27,14.16-11.27a31.89,31.89,0,0,1,10.21,1.58Zm148.35-8.5c7,0,11.08,3.78,11.08,12v24.81h-9.32V83c0-3.71-1.07-6.17-5-6.17s-7.43,3.46-7.43,9.69v19.4h-9.12V83c0-3.46-1.14-6.17-5.11-6.17-4.15,0-7.36,3.84-7.36,10.07v19h-9.44V69.81c6.16-.76,8.49,1.76,8.75,5.79a12.45,12.45,0,0,1,11.27-6.55c6.48,0,9.06,3.59,10,7,1.57-3.58,5.6-7,11.71-7Zm-189.84.76c-2,10.7-7.18,27.58-10.45,36.08h-9.82l-6.93-24h-.12l-6.93,24h-9.76c-3.15-8.38-8.82-25.82-10.45-36.08h9.25l6.11,24.81h.13l7.3-24.81h9.26l7.11,24.62h.13l6.17-24.62Zm-60,7.74A24.28,24.28,0,0,0,146.1,76c-2.9,0-5.1.76-5.1,3.4,0,6.24,16,2.4,16,15.24,0,8.69-7.05,12-15,12a37,37,0,0,1-10.64-1.58l.56-7.62a36.66,36.66,0,0,0,9.7,1.77c3.08,0,5.6-1,5.6-3.65,0-6.68-16-2.4-16-15.18,0-8,6.73-11.27,14.16-11.27a30.93,30.93,0,0,1,10.08,1.58Zm185.11,29.09c-10.26,0-17.44-5.6-17.44-18.19,0-11.27,7.56-19.4,18.51-19.4,10.2,0,16.81,5.74,16.81,18,0,11.78-7.17,19.58-17.88,19.58ZM339.21,77c-4.15,0-8.12,3.08-8.12,11,0,6.86,2.58,10.7,8,10.7,4.6,0,8.13-3.71,8.13-11,0-7-2.52-10.7-8-10.7Zm-121.27,28.9h9.26V69.81c-4.35-.44-9.26.76-9.26,7.56ZM223,65.28A5.8,5.8,0,0,0,229,59.55a5.83,5.83,0,0,0-11.65,0A5.79,5.79,0,0,0,223,65.28Zm86.39,41.24c-10.71,0-17.7-5.35-17.7-18.13,0-10.84,6-19.21,19.14-19.21a26.8,26.8,0,0,1,8.82,1.51l-2,7.56a19.06,19.06,0,0,0-6.54-1.32c-6.74,0-9.51,4.4-9.51,11,0,6.43,2.52,10.71,9.13,10.71a18.39,18.39,0,0,0,7.3-1.58l1.07,7.43C317.3,105.64,313.46,106.52,309.43,106.52Z"/><path class="cls-3" d="M70.91,63.05h0a6.38,6.38,0,0,0-5.19,4c-.92,2.05-1.42,4.31-2.77,6.15-2.8,3.84-10.06,2.94-11.17,8.21-1.63,7.74,8.44,9.37,11.43,14.76,2.19,4,1.12,10.15,5.26,12.94a7.07,7.07,0,0,0,2.06.92,3,3,0,0,0,.39.08S70.91,63.05,70.91,63.05Z"/><path class="cls-4" d="M70.92,110.13l-.39-.08a7.12,7.12,0,0,1-2.07-.92c-4.14-2.79-3.07-9-5.25-12.94a11.37,11.37,0,0,0-3-3.28l-.11-.09c-.48.48-1.19,1.23-2.34,2.38a32,32,0,0,0-2.51,2.89h0a35.66,35.66,0,0,1,6.6,9.2c2,4.49,2.54,9.38,4.1,14a17.94,17.94,0,0,0,2.32,4.88,6.09,6.09,0,0,0,2.66,2.21v-18.3Z"/><path class="cls-5" d="M66,53.19c.44.48,1,1.06,1.5,1.58s1.18,1.22,1.91,1.92c.45.43,1,1,1.47,1.4V36.94a5.66,5.66,0,0,0-1.49-.1,12.91,12.91,0,0,0-3.69.76,9.5,9.5,0,0,0-2.91,1.64,5.53,5.53,0,0,0-1.92,3.12,8,8,0,0,0,.84,5,18.86,18.86,0,0,0,1.77,3s.5.61.78.92C64.83,51.86,65.42,52.52,66,53.19Z"/><path class="cls-6" d="M99.75,69.55a27.37,27.37,0,0,0-2.39-9.26,23.91,23.91,0,0,0-4.74-6.78c-.19-.19-.39-.39-.59-.57a25,25,0,0,0-3.56-2.77,25.86,25.86,0,0,0-3.93-2.07,23.36,23.36,0,0,0-7.07-1.75,12.66,12.66,0,0,0-6.56,1v10.7h0c1.2,1.1,2.64,2.42,3.37,3.07.51.45,1,.88,1.51,1.32l1.49,1.25L78.83,65c.64.54,2.94,2.4,3.21,2.63l.45.36L88.3,72.7l.13.1c.78.63,4.79,3.86,6.76,5.55s3.45,3,3.59,3.15a48.15,48.15,0,0,0,.87-5.32A37.1,37.1,0,0,0,99.75,69.55Z"/><path class="cls-7" d="M112.35,100.58a26.08,26.08,0,0,0-3.28-7.42,50.76,50.76,0,0,0-7.27-8.8c-1-1-2-1.9-3-2.85-.1.45-.35,1.52-.85,3.15-.26.85-.73,2.25-.91,2.78-.27.77-.79,2.15-1.14,3-.48,1.25-1.24,3-1.92,4.46C93,97,92.45,98,91.36,100c-.49.89-.91,1.74-1.52,2.8-.21.36-.43.74-.69,1.16-.11.17-1.37,2.21-1.5,2.44-.25.39-.53.84-.7,1.09-1.51,2.31-1.64,2.42-1.88,2.76-.56.76.2-.28-.86,1.21L81.7,115c-.37.51-1.62,2.15-3,3.86s-2.8,3.58-3.43,4.33l-4.41,5.2v10.45c1.86-.15,3.8-.41,5.79-.77a66.86,66.86,0,0,0,7.54-1.87,62.31,62.31,0,0,0,6.38-2.38,54.74,54.74,0,0,0,5.46-2.76,44.25,44.25,0,0,0,6.42-4.51,32.83,32.83,0,0,0,5.91-6.52,26.15,26.15,0,0,0,3.78-8.35,25.76,25.76,0,0,0,.76-5.21A20.55,20.55,0,0,0,112.35,100.58Z"/><path class="cls-8" d="M68.26,126.22a17.94,17.94,0,0,1-2.32-4.88c-1.56-4.66-2.06-9.55-4.1-14a35.73,35.73,0,0,0-6.59-9.2A27.3,27.3,0,0,0,53.32,101,16.66,16.66,0,0,0,52,103.85a14.29,14.29,0,0,0-.44,1.71,12,12,0,0,0-.2,1.8,12.3,12.3,0,0,0,.14,2.33,14.14,14.14,0,0,0,.64,2.5,17.21,17.21,0,0,0,1.42,3l.25.41a24.12,24.12,0,0,0,4.26,5.11A32.86,32.86,0,0,0,61,123.12c.69.49,1.39,1,2.11,1.41,1,.6,1.95,1.16,2.95,1.68,1.36.7,3.5,1.67,4.87,2.22h0A6.09,6.09,0,0,1,68.26,126.22Z"/><path class="cls-9" d="M98.78,81.5c-.14-.13-1.75-1.58-3.59-3.15s-6-4.92-6.76-5.55l-.13-.1L82.49,68c-.22-.17-.37-.3-.45-.37-.27-.22-2.57-2.08-3.21-2.62l-1.55-1.3L75.8,62.48c-.54-.44-1-.87-1.52-1.33-.73-.64-2.17-2-3.37-3.06h0c-.46-.43-1-1-1.46-1.39-.73-.7-1.29-1.26-1.91-1.92s-1.06-1.1-1.5-1.58c-.62-.67-1.21-1.33-1.74-1.95l-.6-.7h0c.35.57,1.08,1.62,1.45,2.14,1,1.48.81,1.17,1.81,2.67.68,1,1.83,2.86,2.46,3.92a4.1,4.1,0,0,1,.22.41,16.8,16.8,0,0,1,1,2.25,4.12,4.12,0,0,1,.25,1.1h0s0,47.05,0,47.08h0v18.3l4.41-5.2c.63-.75,2.07-2.58,3.43-4.33s2.58-3.35,3-3.86l2.51-3.58c1.06-1.49.3-.45.86-1.21.24-.34.37-.45,1.88-2.76l.7-1.09c.13-.23,1.39-2.27,1.5-2.45.26-.41.48-.79.69-1.15.61-1.06,1-1.91,1.52-2.8,1.09-2,1.62-3,2.6-5.08.68-1.48,1.44-3.22,1.92-4.46.35-.87.87-2.26,1.13-3,.19-.54.66-1.93.92-2.78.5-1.64.75-2.71.85-3.16h0Z"/><path class="cls-10" d="M55.24,98.09a32,32,0,0,1,2.51-2.89c1.15-1.15,1.86-1.89,2.34-2.38-4-3.15-9.55-5.51-8.31-11.39,1.11-5.27,8.37-4.37,11.17-8.21,1.35-1.84,1.85-4.1,2.77-6.15a6.38,6.38,0,0,1,5.19-4h0a4.11,4.11,0,0,0-.25-1.11,16.13,16.13,0,0,0-1-2.24,3.36,3.36,0,0,0-.22-.42c-.63-1.05-1.78-2.89-2.46-3.92-1-1.5-.78-1.19-1.81-2.66-.37-.53-1.1-1.58-1.45-2.15h0a1.89,1.89,0,0,1-.18-.22,18.47,18.47,0,0,1-1.77-3l-.26-.63-3.24,2.4c-2.56,1.88-5.14,3.74-7.63,5.71-1.64,1.29-3.25,2.63-4.79,4a44.59,44.59,0,0,0-4.27,4.4c-2.47,3-4.42,6.36-4.7,10.2a13.06,13.06,0,0,0,0,1.88,13.62,13.62,0,0,0,.26,2,15.73,15.73,0,0,0,2.94,6.4,36.68,36.68,0,0,0,5.5,5.65l1,.89c2.35,2,4.74,4,7,6.2.64.6,1.25,1.23,1.86,1.87l-.19-.21Z"/></svg>