<svg xmlns="http://www.w3.org/2000/svg" width="330" height="60" viewBox="0 0 330 60">
    <g fill="none" fill-rule="evenodd">
        <path fill="#FFF" d="M330 59v1h-1v-1h1zM1 0v1H0V0h1z"/>
        <path fill="#000" d="M87.033 32.05c1.98 0 3.535.824 4.54 1.951v-1.645h4.176V47.35c0 4.572-3.413 7.558-7.375 7.558-4.328 0-7.101-2.468-7.985-5.82h4.51c.55 1.218 1.494 1.92 3.475 1.92 1.828 0 3.2-1.555 3.2-3.536v-1.585c-1.006 1.189-2.621 2.012-4.602 2.012-3.23 0-7.345-2.56-7.345-7.924 0-5.394 3.962-7.924 7.406-7.924zm-16.03 0c3.443 0 7.375 2.53 7.375 7.925 0 5.364-4.084 7.924-7.314 7.924-2.012 0-3.658-.67-4.633-1.798v8.502h-4.175V32.356h4.175v1.737c.975-1.189 2.53-2.042 4.572-2.042zm72.26 0c4.266 0 7.253 2.713 7.832 6.584h-2.408c-.457-2.652-2.53-4.45-5.424-4.45-3.11 0-5.517 2.59-5.517 5.79s2.408 5.791 5.517 5.791c2.742 0 4.937-1.828 5.424-4.51h2.408c-.58 3.962-3.78 6.644-7.832 6.644-4.39 0-7.894-3.444-7.894-7.924s3.505-7.924 7.894-7.924zm90.333 0c4.388 0 7.802 3.018 7.802 7.681v.945h-13.44c.243 2.865 2.407 5.12 5.607 5.12 2.53 0 4.389-1.28 5.06-3.322h2.529c-1.098 3.352-3.749 5.425-7.62 5.425-4.815 0-7.832-3.536-7.832-7.802 0-4.572 3.322-8.046 7.894-8.046zm-66.226.306v8.472c0 2.957 1.554 4.937 4.419 4.937 2.59 0 4.602-2.194 4.602-4.967v-8.442h2.347v15.238h-2.317V45.4c-1.036 1.523-2.773 2.499-4.845 2.499-4.267 0-6.583-2.682-6.583-7.07v-8.473h2.377zm-107.248-7.01v22.248h-4.175v-1.707c-1.006 1.189-2.621 2.012-4.602 2.012-3.23 0-7.345-2.56-7.345-7.924 0-5.394 3.962-7.924 7.406-7.924 1.98 0 3.535.731 4.54 1.798v-8.503h4.176zm65.22 6.705c4.389 0 7.802 3.017 7.802 7.68v.945h-13.44c.244 2.865 2.408 5.12 5.608 5.12 2.53 0 4.388-1.28 5.059-3.322h2.53c-1.098 3.352-3.75 5.425-7.62 5.425-4.815 0-7.832-3.536-7.832-7.802 0-4.572 3.322-8.046 7.893-8.046zm140.223-4.602v4.907h3.597v2.133h-3.597v7.253c0 3.11.58 3.627 3.597 3.627v2.225h-.336c-4.45 0-5.638-1.28-5.638-5.821v-7.284h-2.62v-2.133h2.62v-3.597l2.377-1.31zm-49.372 4.602c4.389 0 6.796 2.682 6.796 6.583v8.96h-2.377v-9.113c0-2.53-1.706-4.327-4.45-4.327-2.498 0-4.48 1.706-4.48 4.571v8.869h-2.346v-9.387c0-2.438-1.707-4.053-4.267-4.053-2.682 0-4.663 1.798-4.663 4.846v8.594h-2.346V32.356h2.316v2.072c1.005-1.463 2.712-2.377 4.876-2.377 2.743 0 4.571 1.28 5.425 3.109.975-1.86 2.956-3.11 5.516-3.11zm-59.886.305v2.194c.823-1.402 2.286-2.194 4.236-2.194h1.89v2.194h-1.89c-3.078 0-4.206 1.615-4.206 5.15v7.894h-2.377V32.356h2.347zm28.13 0v15.238h-2.377V32.356h2.377zm7.314-4.907v4.907h3.596v2.133h-3.596v7.253c0 3.11.579 3.627 3.596 3.627v2.225h-.335c-4.45 0-5.638-1.28-5.638-5.821v-7.284h-2.621v-2.133h2.62v-3.597l2.378-1.31zm-82.47 4.907v2.194c.823-1.402 2.286-2.194 4.236-2.194h1.89v2.194h-1.89c-3.078 0-4.205 1.615-4.205 5.15v7.894h-2.378V32.356h2.347zM251.7 32.05c4.084 0 6.613 2.682 6.613 7.07v8.473h-2.377v-8.472c0-2.957-1.524-4.938-4.572-4.938-2.773 0-4.815 2.195-4.815 4.968v8.442h-2.347V32.356h2.317v2.255c1.066-1.554 2.895-2.56 5.18-2.56zM70.21 35.86c-2.255 0-3.9 1.828-3.9 4.083 0 2.256 1.645 4.115 3.9 4.115 2.316 0 4.084-1.768 4.084-4.115 0-2.346-1.768-4.084-4.084-4.084zm17.585 0c-2.316 0-4.084 1.737-4.084 4.083 0 2.347 1.768 4.115 4.084 4.115 2.255 0 3.9-1.86 3.9-4.115s-1.645-4.084-3.9-4.084zm-35.627 0c-2.317 0-4.084 1.737-4.084 4.083 0 2.347 1.767 4.115 4.084 4.115 2.255 0 3.9-1.86 3.9-4.115s-1.645-4.084-3.9-4.084zm73.174-1.707c-2.743 0-4.846 1.828-5.455 4.388h10.85c-.458-2.742-2.439-4.388-5.395-4.388zm108.254 0c-2.743 0-4.846 1.828-5.456 4.388h10.85c-.457-2.742-2.438-4.388-5.394-4.388zm-50.348-8.686c1.097 0 1.89.792 1.89 1.859s-.793 1.89-1.89 1.89-1.859-.823-1.859-1.89.823-1.859 1.86-1.859z"/>
        <path fill="#783C96" d="M261.437 22.776h4.174v-6.865h-4.174z"/>
        <path fill="#FFB81C" d="M281.668 18.073h4.174v-7.364h-4.174z"/>
        <path fill="#CE0F69" d="M268.18 25.346h4.174V10.709h-4.173z"/>
        <path fill="#E04E39" d="M274.932 5.134l-.008 17.64 4.167.002.007-17.64z"/>
    </g>
</svg>
