<?xml version="1.0" encoding="UTF-8" standalone="no"?>
<!-- Created with Inkscape (http://www.inkscape.org/) -->

<svg
   xmlns:dc="http://purl.org/dc/elements/1.1/"
   xmlns:cc="http://creativecommons.org/ns#"
   xmlns:rdf="http://www.w3.org/1999/02/22-rdf-syntax-ns#"
   xmlns:svg="http://www.w3.org/2000/svg"
   xmlns="http://www.w3.org/2000/svg"
   xmlns:xlink="http://www.w3.org/1999/xlink"
   version="1.1"
   width="2125.9841"
   height="885.82672"
   id="svg2">
  <defs
     id="defs4">
    <linearGradient
       id="linearGradient5294">
      <stop
         id="stop5296"
         style="stop-color:#000000;stop-opacity:1"
         offset="0" />
      <stop
         id="stop5298"
         style="stop-color:#000000;stop-opacity:0"
         offset="1" />
    </linearGradient>
    <linearGradient
       x1="198.87143"
       y1="634.27142"
       x2="834.44952"
       y2="634.27142"
       id="linearGradient5302"
       xlink:href="#linearGradient5294"
       gradientUnits="userSpaceOnUse" />
  </defs>
  <metadata
     id="metadata7">
    <rdf:RDF>
      <cc:Work
         rdf:about="">
        <dc:format>image/svg+xml</dc:format>
        <dc:type
           rdf:resource="http://purl.org/dc/dcmitype/StillImage" />
        <dc:title></dc:title>
      </cc:Work>
    </rdf:RDF>
  </metadata>
  <g
     transform="translate(0,-166.53403)"
     id="layer1"
     style="display:inline">
    <g
       id="g3862">
      <path
         d="m 1825.7143,447.25528 c 0,229.59266 -195.0759,415.71429 -435.7143,415.71429 -240.6384,0 -435.71429,-186.12163 -435.71429,-415.71429 0,-229.59267 195.07589,-415.714295 435.71429,-415.714295 240.6384,0 435.7143,186.121625 435.7143,415.714295 z"
         transform="matrix(1.0075048,0,0,1.0559759,-11.415701,138.25895)"
         id="path3755-2"
         style="fill:#ffffff;fill-opacity:1;stroke:#afca66;stroke-width:1;stroke-miterlimit:4;stroke-opacity:1;display:inline" />
      <path
         d="m 1389,5.03125 c -242.4443,0 -438.96875,196.55568 -438.96875,439 C 950.03125,686.47557 1146.5557,883 1389,883 c 242.4443,0 438.9688,-196.52443 438.9688,-438.96875 -1e-4,-242.44432 -196.5245,-439 -438.9688,-439 z m -322.0938,312.4375 0,54.25 62.6563,0 0,43.40625 -62.6563,0 0,64.75 c 0,10.96673 1.8604,19.71672 5.5938,26.25 3.9666,6.53338 11.7707,9.81254 23.4375,9.8125 5.5999,4e-5 11.3228,-0.47288 17.1563,-1.40625 6.0665,-1.16662 11.5686,-2.69579 16.4687,-4.5625 l 7.3437,40.59375 c -6.3001,2.56667 -13.3001,4.78958 -21,6.65625 -7.7001,1.86666 -17.1438,2.8125 -28.3437,2.8125 -14.2334,0 -26.0417,-1.86042 -35.375,-5.59375 -9.3334,-3.96666 -16.775,-9.35832 -22.375,-16.125 -5.6,-6.99998 -9.5729,-15.38747 -11.9063,-25.1875 -2.1,-9.79995 -3.1562,-20.66244 -3.1562,-32.5625 l 0,-154.6875 52.1562,-8.40625 z M 1231,366.8125 c 15.3999,1.9e-4 28.2332,1.75019 38.5,5.25 10.2665,3.50018 18.4332,8.52934 24.5,15.0625 6.2998,6.5335 10.7144,14.47932 13.2812,23.8125 2.5665,9.33347 3.8436,19.69179 3.8438,31.125 l 0,108.5 c -7.4668,1.63334 -17.8252,3.525 -31.125,5.625 -13.3001,2.33333 -29.4126,3.5 -48.3125,3.5 -11.9001,0 -22.7626,-1.05625 -32.5625,-3.15625 -9.5667,-2.1 -17.8438,-5.48958 -24.8438,-10.15625 -7,-4.89999 -12.3604,-11.20623 -16.0937,-18.90625 -3.7333,-7.69996 -5.5938,-17.1437 -5.5937,-28.34375 -1e-4,-10.73327 2.0812,-19.84576 6.2812,-27.3125 4.4333,-7.46658 10.2666,-13.41032 17.5,-17.84375 7.2333,-4.43323 15.5416,-7.57072 24.875,-9.4375 9.3333,-2.09989 18.9978,-3.15614 29.0312,-3.15625 6.7666,1.1e-4 12.7104,0.36261 17.8438,1.0625 5.3666,0.46678 9.702,1.16053 12.9688,2.09375 l 0,-4.90625 c -2e-4,-8.86654 -2.696,-15.97695 -8.0626,-21.34375 -5.3667,-5.36652 -14.7,-8.06235 -28,-8.0625 -8.8667,1.5e-4 -17.6167,0.69389 -26.25,2.09375 -8.6333,1.16681 -16.1062,2.91681 -22.4062,5.25 l -6.625,-42 c 3.0333,-0.93315 6.7541,-1.84773 11.1875,-2.78125 4.6666,-1.16648 9.6958,-2.11231 15.0625,-2.8125 5.3666,-0.93315 10.9479,-1.6269 16.7812,-2.09375 6.0666,-0.69981 12.152,-1.06231 18.2188,-1.0625 z m 202.9062,0.71875 c 13.2999,1.9e-4 24.0208,1.75019 32.1876,5.25 8.3998,3.26685 15.2894,7.23976 20.6562,11.90625 7.4665,-5.36649 15.9644,-9.59149 25.5312,-12.625 9.7999,-3.03315 18.8019,-4.53106 26.9688,-4.53125 14.6998,1.9e-4 26.6977,2.08144 36.0312,6.28125 9.5665,3.96684 17.1498,9.68976 22.75,17.15625 5.5998,7.46682 9.4623,16.32723 11.5626,26.59375 2.0997,10.26679 3.1559,21.71262 3.1562,34.3125 l 0,103.9375 -52.1562,0 0,-97.625 c -3e-4,-16.79989 -2.2232,-28.71862 -6.6563,-35.71875 -4.2002,-6.99986 -11.5315,-10.49986 -22.0313,-10.5 -2.8001,1.4e-4 -6.7731,0.69389 -11.9062,2.09375 -4.9002,1.40014 -8.9835,3.15014 -12.25,5.25 1.6332,5.3668 2.6894,11.08971 3.1562,17.15625 0.4665,5.83345 0.6874,12.13969 0.6876,18.90625 l 0,100.4375 -52.1563,0 0,-97.625 c -10e-5,-16.79989 -2.223,-28.71862 -6.6563,-35.71875 -4.2001,-6.99986 -11.5313,-10.49986 -22.0312,-10.5 -3.2668,1.4e-4 -6.6563,0.25223 -10.1562,0.71875 -3.5001,0.23348 -6.8897,0.56473 -10.1563,1.03125 l 0,142.09375 -52.1563,0 0,-177.78125 c 4.4334,-1.16649 9.5729,-2.33315 15.4063,-3.5 6.0666,-1.39982 12.3729,-2.56648 18.9063,-3.5 6.7666,-1.16648 13.6561,-2.0019 20.6562,-2.46875 6.9999,-0.69981 13.8895,-1.03106 20.6562,-1.03125 z M 1240.0938,476.375 c -4.9001,8e-5 -9.5668,0.36258 -14,1.0625 -4.2001,0.46674 -7.9522,1.49174 -11.2188,3.125 -3.2667,1.63341 -5.8209,3.85632 -7.6875,6.65625 -1.8667,2.80007 -2.8126,6.30006 -2.8125,10.5 -10e-5,8.16672 2.6958,13.88963 8.0625,17.15625 5.5999,3.03337 13.1832,4.56254 22.75,4.5625 5.1332,4e-5 10.0207,-0.14163 14.6875,-0.375 4.6666,-0.2333 8.4186,-0.56455 11.2188,-1.03125 l 0,-39.5625 c -2.1002,-0.46659 -5.2689,-0.93951 -9.4688,-1.40625 -4.2001,-0.46659 -8.0314,-0.68742 -11.5312,-0.6875 z"
         transform="translate(0,166.53403)"
         id="path3755"
         style="fill:#afca66;fill-opacity:1;stroke:#afca66;stroke-width:1.03145564;stroke-miterlimit:4;stroke-opacity:1;stroke-dasharray:none" />
      <g
         id="text3759"
         style="font-size:40px;font-style:normal;font-variant:normal;font-weight:bold;font-stretch:normal;line-height:125%;letter-spacing:0px;word-spacing:0px;fill:#afca66;fill-opacity:1;stroke:none;font-family:Ubuntu;-inkscape-font-specification:Sans Bold">
        <path
           d="m 433.11047,714.64642 c -6.5335,-16.79998 -13.53349,-35.93329 -21,-57.4 -7.23348,-21.69992 -13.88347,-44.21656 -19.95,-67.55 -6.06679,23.33344 -12.71679,45.85008 -19.95,67.55 -7.23344,21.46671 -14.11676,40.60002 -20.65,57.4 l -28.35,0 c -10.73339,-24.03331 -21.23338,-51.44995 -31.5,-82.25 -10.26669,-30.79988 -19.95001,-64.04985 -29.05,-99.75 l 35,0 c 2.33329,10.96684 5.13329,22.86683 8.4,35.7 3.26662,12.83347 6.64995,25.66679 10.15,38.5 3.73327,12.83343 7.58327,25.20009 11.55,37.1 3.96659,11.90006 7.69992,22.28339 11.2,31.15 3.96658,-10.96661 7.81658,-22.5166 11.55,-34.65 3.96657,-12.36658 7.6999,-24.73323 11.2,-37.1 3.49989,-12.59987 6.76656,-24.84986 9.8,-36.75 3.26655,-12.13317 6.06655,-23.44983 8.4,-33.95 l 26.95,0 c 2.09985,10.50017 4.66652,21.81683 7.7,33.95 3.03318,11.90014 6.29984,24.15013 9.8,36.75 3.49983,12.36677 7.1165,24.73342 10.85,37.1 3.96649,12.1334 7.93315,23.68339 11.9,34.65 3.49981,-8.86661 7.11647,-19.24994 10.85,-31.15 3.96646,-11.89991 7.81646,-24.26657 11.55,-37.1 3.73312,-12.83321 7.23312,-25.66653 10.5,-38.5 3.26644,-12.83317 6.06644,-24.73316 8.4,-35.7 l 33.6,0 c -9.10025,35.70015 -18.78358,68.95012 -29.05,99.75 -10.26689,30.80005 -20.76688,58.21669 -31.5,82.25 l -28.35,0"
           id="path3870"
           style="font-size:350px;font-weight:normal;text-align:start;text-anchor:start;fill:#afca66;font-family:Ubuntu;-inkscape-font-specification:Ubuntu" />
        <path
           d="m 546.28079,623.99642 c -2e-5,-16.09989 2.33331,-30.09988 7,-42 4.66663,-12.13319 10.84996,-22.16651 18.55,-30.1 7.69995,-7.93316 16.5666,-13.88315 26.6,-17.85 10.03325,-3.96648 20.29991,-5.94981 30.8,-5.95 24.49987,1.9e-4 43.28319,7.70018 56.35,23.1 13.06649,15.16682 19.59982,38.38346 19.6,69.65 -1.8e-4,1.4001 -1.8e-4,3.26676 0,5.6 -1.8e-4,2.10009 -0.11685,4.08342 -0.35,5.95 l -124.6,0 c 1.39994,18.90007 6.88327,33.25005 16.45,43.05 9.56658,9.80003 24.4999,14.70003 44.8,14.7 11.4332,3e-5 20.99986,-0.9333 28.7,-2.8 7.93318,-2.09997 13.88317,-4.0833 17.85,-5.95 l 4.55,27.3 c -3.96683,2.10001 -10.96682,4.31667 -21,6.65 -9.80014,2.33333 -21.00013,3.5 -33.6,3.5 -15.86676,0 -29.63342,-2.33333 -41.3,-7 -11.43339,-4.89999 -20.88338,-11.54998 -28.35,-19.95 -7.4667,-8.39997 -13.0667,-18.31662 -16.8,-29.75 -3.50002,-11.6666 -5.25002,-24.38325 -5.25,-38.15 m 124.95,-17.85 c 0.23319,-14.69987 -3.50014,-26.71653 -11.2,-36.05 -7.46679,-9.56651 -17.85012,-14.34984 -31.15,-14.35 -7.46676,1.6e-4 -14.11676,1.51683 -19.95,4.55 -5.60008,2.80015 -10.38341,6.53348 -14.35,11.2 -3.96673,4.66681 -7.11673,10.03347 -9.45,16.1 -2.10006,6.06679 -3.50006,12.25012 -4.2,18.55 l 90.3,0"
           id="path3872"
           style="font-size:350px;font-weight:normal;text-align:start;text-anchor:start;fill:#afca66;font-family:Ubuntu;-inkscape-font-specification:Ubuntu" />
        <path
           d="m 866.0386,696.44642 c -2.80014,1.86669 -8.28347,4.31668 -16.45,7.35 -7.93345,2.80001 -17.26678,4.20001 -28,4.2 -10.96675,1e-5 -21.35008,-1.74999 -31.15,-5.25 -9.56672,-3.49998 -17.96672,-8.86664 -25.2,-16.1 -7.23337,-7.46663 -12.95003,-16.68329 -17.15,-27.65 -4.20002,-10.9666 -6.30002,-24.03325 -6.3,-39.2 -2e-5,-13.29989 1.98331,-25.43321 5.95,-36.4 3.96664,-11.19985 9.6833,-20.76651 17.15,-28.7 7.69995,-8.1665 17.03327,-14.46649 28,-18.9 10.96659,-4.66648 23.33324,-6.99981 37.1,-7 15.16654,1.9e-4 28.34986,1.16685 39.55,3.5 11.43317,2.10018 20.99983,4.08351 28.7,5.95 l 0,162.4 c -1.8e-4,27.99999 -7.2335,48.29997 -21.7,60.9 -14.46681,12.59994 -36.40012,18.89994 -65.8,18.9 -11.43341,-6e-5 -22.2834,-0.93339 -32.55,-2.8 -10.03338,-1.86672 -18.78337,-4.08339 -26.25,-6.65 l 5.95,-28.35 c 6.53329,2.56664 14.46662,4.7833 23.8,6.65 9.5666,2.09997 19.48325,3.14997 29.75,3.15 19.36656,-3e-5 33.24988,-3.85003 41.65,-11.55 8.63319,-7.70002 12.94986,-19.95 12.95,-36.75 l 0,-7.7 m -0.35,-135.1 c -3.26681,-0.93318 -7.70014,-1.74984 -13.3,-2.45 -5.36679,-0.93317 -12.71678,-1.39984 -22.05,-1.4 -17.50009,1.6e-4 -31.03341,5.71682 -40.6,17.15 -9.33339,11.43347 -14.00005,26.60012 -14,45.5 -5e-5,10.50009 1.28328,19.48341 3.85,26.95 2.79994,7.46673 6.4166,13.65006 10.85,18.55 4.66659,4.90005 9.91659,8.51671 15.75,10.85 6.06658,2.33337 12.2499,3.50004 18.55,3.5 8.63322,4e-5 16.56655,-1.16663 23.8,-3.5 7.2332,-2.56662 12.94986,-5.48329 17.15,-8.75 l 0,-106.4"
           id="path3874"
           style="font-size:350px;font-weight:normal;text-align:start;text-anchor:start;fill:#afca66;font-family:Ubuntu;-inkscape-font-specification:Ubuntu" />
      </g>
    </g>
  </g>
</svg>
